<svg xmlns="http://www.w3.org/2000/svg" viewBox="0 0 128 128">
  <defs>
    <linearGradient id="g" x1="0" y1="0" x2="1" y2="1">
      <stop offset="0%" stop-color="#3b82f6"/>
      <stop offset="100%" stop-color="#06b6d4"/>
    </linearGradient>
  </defs>
  <rect width="128" height="128" rx="24" fill="url(#g)"/>
  <g fill="#fff" transform="translate(16,16)">
    <path d="M64 8c-4.4 0-8 3.6-8 8v24H32c-8.8 0-16 7.2-16 16v8c0 4.4 3.6 8 8 8h24v24c0 4.4 3.6 8 8 8h8c4.4 0 8-3.6 8-8V72h24c4.4 0 8-3.6 8-8v-8c0-8.8-7.2-16-16-16H72V16c0-4.4-3.6-8-8-8h0z" opacity="0.9"/>
    <circle cx="64" cy="16" r="6" />
    <circle cx="16" cy="64" r="6" />
    <circle cx="64" cy="96" r="6" />
    <circle cx="96" cy="64" r="6" />
  </g>
</svg>
